# File created by Blade
# Date/Time:  Wed Apr 08 17:04:22 2015
# Frame Rate: 120.000 fps
#------------------------------------------------------
:FULLY-SPECIFIED
:DEGREES
939
root 3.376582 35.895789 4.324734 -138.662080 -80.697743 168.016028
Spine -32.154884 -14.059109 1.067190
Head 52.181505 -17.397436 -17.556740
LeftShoulder 16.265176 -3.396344 30.642362
LeftArm 106.316927 41.950548 -38.043231
LeftForeArm 1.302517 -0.000000 93.603928
LeftHand -7.952968 -0.000000 -17.223944
LeftHandThumb1 -26.253704 0.000000 33.147579
RightShoulder -21.453776 -71.207305 -10.270689
RightArm 38.460292 -3.437738 62.497491
RightForeArm 67.354394 0.000000 118.841389
RightHand 4.916117 -0.000000 27.799421
RightHandThumb1 -24.326973 -0.000000 -32.862282
LeftUpLeg -33.099907 9.953786 -4.856245
LeftLeg 20.516109 -0.000000 -0.000000
LeftFoot -18.118090 10.374273 -15.523638
LeftToeBase 8.525878 -0.000000 -0.000000
RightUpLeg -35.088509 -6.011571 -10.594732
RightLeg 17.330120 -0.000000 -0.000000
RightFoot -11.766422 2.740604 20.400155
RightToeBase 13.206508 -0.000000 -0.000000
940
root 3.379799 35.897760 4.320866 -138.726779 -80.688741 168.060823
Spine -32.126819 -14.030502 1.045706
Head 52.189761 -17.464934 -17.562457
LeftShoulder 16.242409 -3.352990 30.643141
LeftArm 106.269472 41.920060 -38.080770
LeftForeArm 1.369047 -0.000000 93.619170
LeftHand -7.722084 -0.000000 -17.383651
LeftHandThumb1 -26.253704 0.000000 33.147579
RightShoulder -21.266007 -71.090354 -10.482223
RightArm 38.592609 -2.448272 63.592208
RightForeArm 68.151427 -0.000000 119.533008
RightHand 5.246533 -0.000000 27.338031
RightHandThumb1 -24.326973 -0.000000 -32.862282
LeftUpLeg -33.078078 9.968669 -4.846551
LeftLeg 20.500172 -0.000000 -0.000000
LeftFoot -18.093285 10.382102 -15.523797
LeftToeBase 8.533446 -0.000000 -0.000000
RightUpLeg -35.067448 -6.034739 -10.570387
RightLeg 17.308039 -0.000000 -0.000000
RightFoot -11.729451 2.777887 20.373639
RightToeBase 13.184702 -0.000000 -0.000000
941
root 3.382769 35.900442 4.316284 -138.776874 -80.681525 168.100020
Spine -32.111164 -14.008737 1.021604
Head 52.229131 -17.527502 -17.586874
LeftShoulder 16.209109 -3.346145 30.659940
LeftArm 106.265119 41.904701 -38.066457
LeftForeArm 1.245707 -0.000000 93.569023
LeftHand -7.413697 -0.000000 -17.381628
LeftHandThumb1 -26.253704 0.000000 33.147579
RightShoulder -21.131743 -70.971838 -10.614641
RightArm 38.713193 -1.481513 64.523241
RightForeArm 68.808523 0.000000 120.243722
RightHand 5.661482 -0.000000 26.723204
RightHandThumb1 -24.326973 -0.000000 -32.862282
LeftUpLeg -33.063882 9.997498 -4.844089
LeftLeg 20.483117 -0.000000 -0.000000
LeftFoot -18.065082 10.362266 -15.536454
LeftToeBase 8.502282 -0.000000 -0.000000
RightUpLeg -35.050043 -6.032052 -10.557247
RightLeg 17.276796 -0.000000 -0.000000
RightFoot -11.696279 2.781902 20.367723
RightToeBase 13.161658 -0.000000 -0.000000
942
root 3.385596 35.902639 4.311789 -138.814297 -80.679238 168.119880
Spine -32.094478 -13.983713 1.004614
Head 52.260866 -17.555114 -17.619495
LeftShoulder 16.207658 -3.311776 30.642929
LeftArm 106.184264 41.879053 -38.106710
LeftForeArm 1.368687 0.000000 93.593574
LeftHand -7.665971 -0.000000 -17.399672
LeftHandThumb1 -26.253704 0.000000 33.147579
RightShoulder -21.070553 -70.895457 -10.705809
RightArm 38.882748 -0.557650 65.434227
RightForeArm 69.400572 -0.000000 120.945705
RightHand 6.148559 -0.000000 25.904864
RightHandThumb1 -24.326973 -0.000000 -32.862282
LeftUpLeg -33.043184 10.016892 -4.838361
LeftLeg 20.465784 -0.000000 -0.000000
LeftFoot -18.048798 10.356987 -15.531734
LeftToeBase 8.526060 -0.000000 -0.000000
RightUpLeg -35.027008 -6.006780 -10.554500
RightLeg 17.253663 -0.000000 -0.000000
RightFoot -11.692300 2.750320 20.344293
RightToeBase 13.176999 -0.000000 -0.000000
943
root 3.386033 35.903879 4.306791 -138.894100 -80.679738 168.150451
Spine -32.050861 -13.992415 1.001633
Head 52.292302 -17.545185 -17.671563
LeftShoulder 16.189350 -3.262561 30.616566
LeftArm 106.140828 41.844936 -38.097048
LeftForeArm 1.472417 -0.000000 93.658200
LeftHand -7.540412 -0.000000 -17.278629
LeftHandThumb1 -26.253704 0.000000 33.147579
RightShoulder -20.822572 -70.751718 -11.001581
RightArm 38.987739 0.304507 66.332890
RightForeArm 69.844872 -0.000000 121.595100
RightHand 6.557937 -0.000000 24.895161
RightHandThumb1 -24.326973 -0.000000 -32.862282
LeftUpLeg -32.978118 10.041072 -4.825560
LeftLeg 20.434172 -0.000000 -0.000000
LeftFoot -18.029016 10.360011 -15.520644
LeftToeBase 8.537242 -0.000000 -0.000000
RightUpLeg -34.970258 -5.975388 -10.553641
RightLeg 17.240526 -0.000000 -0.000000
RightFoot -11.699953 2.736897 20.342429
RightToeBase 13.217026 -0.000000 -0.000000
944
root 3.385976 35.905113 4.299597 -138.976544 -80.697931 168.181956
Spine -32.012018 -14.021741 1.015634
Head 52.333861 -17.516706 -17.718740
LeftShoulder 16.178393 -3.242217 30.576865
LeftArm 105.997835 41.856663 -38.186627
LeftForeArm 1.543956 0.000000 93.763008
LeftHand -7.651634 -0.000000 -17.216833
LeftHandThumb1 -26.253704 0.000000 33.147579
RightShoulder -20.498168 -70.592514 -11.394477
RightArm 39.056546 1.133098 67.214432
RightForeArm 69.936224 -0.000000 122.128420
RightHand 6.972562 0.000000 23.717438
RightHandThumb1 -24.326973 -0.000000 -32.862282
LeftUpLeg -32.915496 10.070715 -4.804205
LeftLeg 20.406555 -0.000000 -0.000000
LeftFoot -18.009137 10.341420 -15.502765
LeftToeBase 8.550190 -0.000000 -0.000000
RightUpLeg -34.901450 -5.921820 -10.552848
RightLeg 17.217518 -0.000000 -0.000000
RightFoot -11.711462 2.685739 20.350941
RightToeBase 13.169590 -0.000000 -0.000000
945
root 3.387172 35.906671 4.294301 -139.049407 -80.692072 168.227820
Spine -32.000678 -14.046621 1.027107
Head 52.375366 -17.485932 -17.754906
LeftShoulder 16.161414 -3.173385 30.541673
LeftArm 105.892082 41.847282 -38.303111
LeftForeArm 1.651339 -0.000000 93.868108
LeftHand -7.468407 0.000000 -17.596953
LeftHandThumb1 -26.253704 0.000000 33.147579
RightShoulder -20.197545 -70.422224 -11.775359
RightArm 39.136608 1.977207 68.051251
RightForeArm 69.572042 -0.000000 122.520459
RightHand 7.239451 0.000000 22.543088
RightHandThumb1 -24.326973 -0.000000 -32.862282
LeftUpLeg -32.874224 10.094401 -4.794083
LeftLeg 20.377054 -0.000000 -0.000000
LeftFoot -17.988800 10.342974 -15.494423
LeftToeBase 8.527479 -0.000000 -0.000000
RightUpLeg -34.873283 -5.851387 -10.567562
RightLeg 17.211277 -0.000000 -0.000000
RightFoot -11.731814 2.622322 20.325156
RightToeBase 13.165192 -0.000000 -0.000000
946
root 3.385419 35.906722 4.287040 -139.164525 -80.697079 168.271625
Spine -31.937695 -14.106227 1.022701
Head 52.424560 -17.482892 -17.741303
LeftShoulder 16.120212 -3.123676 30.541244
LeftArm 105.769319 41.867704 -38.475613
LeftForeArm 1.613302 0.000000 93.914803
LeftHand -7.439506 -0.000000 -17.822732
LeftHandThumb1 -26.253704 0.000000 33.147579
RightShoulder -20.031654 -70.320676 -12.001959
RightArm 39.313952 2.780631 68.735827
RightForeArm 69.043117 0.000000 122.744121
RightHand 7.629485 0.000000 21.445937
RightHandThumb1 -24.326973 -0.000000 -32.862282
LeftUpLeg -32.783254 10.124971 -4.769911
LeftLeg 20.345805 -0.000000 -0.000000
LeftFoot -17.976813 10.333561 -15.480539
LeftToeBase 8.533890 -0.000000 -0.000000
RightUpLeg -34.797302 -5.794011 -10.570100
RightLeg 17.212107 -0.000000 -0.000000
RightFoot -11.757951 2.572835 20.306333
RightToeBase 13.137108 -0.000000 -0.000000
947
root 3.385068 35.906717 4.279519 -139.228583 -80.706111 168.272808
Spine -31.882214 -14.178211 1.008574
Head 52.490121 -17.517846 -17.735240
LeftShoulder 16.094063 -3.082969 30.517112
LeftArm 105.702822 41.856275 -38.539188
LeftForeArm 1.906680 -0.000000 93.947802
LeftHand -7.420332 0.000000 -17.771039
LeftHandThumb1 -26.253704 0.000000 33.147579
RightShoulder -19.811617 -70.208488 -12.289466
RightArm 39.460551 3.494054 69.352083
RightForeArm 69.179601 -0.000000 122.823698
RightHand 7.923409 -0.000000 20.641617
RightHandThumb1 -24.326973 -0.000000 -32.862282
LeftUpLeg -32.703400 10.120700 -4.735944
LeftLeg 20.321263 -0.000000 -0.000000
LeftFoot -17.977274 10.328196 -15.497231
LeftToeBase 8.558648 -0.000000 -0.000000
RightUpLeg -34.729132 -5.725992 -10.586606
RightLeg 17.214963 -0.000000 -0.000000
RightFoot -11.793490 2.526460 20.316856
RightToeBase 13.168789 -0.000000 -0.000000
948
root 3.383699 35.906154 4.272575 -139.359570 -80.687916 168.328394
Spine -31.803941 -14.223369 0.966730
Head 52.552745 -17.597684 -17.704731
LeftShoulder 16.067228 -3.062376 30.496198
LeftArm 105.602519 41.853385 -38.652392
LeftForeArm 2.011416 -0.000000 93.976903
LeftHand -7.622656 -0.000000 -17.809978
LeftHandThumb1 -26.253704 0.000000 33.147579
RightShoulder -19.624790 -70.106877 -12.504380
RightArm 39.585274 4.163029 69.845702
RightForeArm 69.762066 0.000000 122.849309
RightHand 8.253486 -0.000000 19.894526
RightHandThumb1 -24.326973 -0.000000 -32.862282
LeftUpLeg -32.613899 10.153679 -4.716734
LeftLeg 20.306919 -0.000000 -0.000000
LeftFoot -17.977544 10.329089 -15.483685
LeftToeBase 8.553279 -0.000000 -0.000000
RightUpLeg -34.663631 -5.652385 -10.606920
RightLeg 17.234870 -0.000000 -0.000000
RightFoot -11.822752 2.504583 20.319886
RightToeBase 13.169965 -0.000000 -0.000000
949
root 3.383567 35.905766 4.265679 -139.471437 -80.664672 168.376861
Spine -31.734541 -14.262184 0.905273
Head 52.627733 -17.694103 -17.662945
LeftShoulder 16.043855 -3.064075 30.494617
LeftArm 105.506633 41.852478 -38.764572
LeftForeArm 1.927430 0.000000 93.962217
LeftHand -7.713793 -0.000000 -17.942640
LeftHandThumb1 -26.253704 0.000000 33.147579
RightShoulder -19.444654 -70.028141 -12.680121
RightArm 39.678307 4.837654 70.303818
RightForeArm 70.397350 -0.000000 122.859003
RightHand 8.649284 -0.000000 18.972378
RightHandThumb1 -24.326973 -0.000000 -32.862282
LeftUpLeg -32.536260 10.178763 -4.699190
LeftLeg 20.290687 -0.000000 -0.000000
LeftFoot -17.978597 10.318721 -15.508577
LeftToeBase 8.533930 -0.000000 -0.000000
RightUpLeg -34.613262 -5.596213 -10.622540
RightLeg 17.251792 -0.000000 -0.000000
RightFoot -11.837006 2.499571 20.333377
RightToeBase 13.157860 -0.000000 -0.000000
950
root 3.384111 35.905435 4.259830 -139.591677 -80.630450 168.435564
Spine -31.652228 -14.265636 0.804848
Head 52.708610 -17.838112 -17.606619
LeftShoulder 16.033002 -3.124905 30.529801
LeftArm 105.510043 41.822041 -38.750839
LeftForeArm 1.666893 -0.000000 93.976709
LeftHand -7.903442 -0.000000 -17.939408
LeftHandThumb1 -26.253704 0.000000 33.147579
RightShoulder -19.368487 -69.961731 -12.707371
RightArm 39.727278 5.600442 70.762994
RightForeArm 70.839444 -0.000000 122.893423
RightHand 9.027880 0.000000 17.692516
RightHandThumb1 -24.326973 -0.000000 -32.862282
LeftUpLeg -32.461115 10.190757 -4.680052
LeftLeg 20.276350 -0.000000 -0.000000
LeftFoot -17.980715 10.342879 -15.516574
LeftToeBase 8.529417 -0.000000 -0.000000
RightUpLeg -34.575073 -5.550755 -10.637338
RightLeg 17.276716 -0.000000 -0.000000
RightFoot -11.829792 2.517864 20.347490
RightToeBase 13.106866 -0.000000 -0.000000
951
root 3.386803 35.906004 4.252872 -139.732157 -80.604312 168.561439
Spine -31.634815 -14.273469 0.753366
Head 52.780071 -17.927219 -17.594414
LeftShoulder 16.038904 -3.152589 30.529122
LeftArm 105.436484 41.794703 -38.805116
LeftForeArm 1.762760 0.000000 93.975606
LeftHand -7.926180 -0.000000 -17.962071
LeftHandThumb1 -26.253704 0.000000 33.147579
RightShoulder -19.202833 -69.870882 -12.839994
RightArm 39.708131 6.393603 71.289550
RightForeArm 71.017330 -0.000000 122.918793
RightHand 9.518546 0.000000 15.872401
RightHandThumb1 -24.326973 -0.000000 -32.862282
LeftUpLeg -32.444934 10.209152 -4.657486
LeftLeg 20.274158 -0.000000 -0.000000
LeftFoot -17.988371 10.360783 -15.538957
LeftToeBase 8.546125 -0.000000 -0.000000
RightUpLeg -34.583386 -5.533697 -10.621692
RightLeg 17.295005 -0.000000 -0.000000
RightFoot -11.810465 2.555635 20.354526
RightToeBase 13.084922 -0.000000 -0.000000
